<svg width="100" height="100" viewBox="0 0 100 100" fill="none" xmlns="http://www.w3.org/2000/svg">
<rect width="100" height="100" rx="20" fill="white"/>
<g opacity="0.95">
<path d="M40.0745 24H66.8759C72.7897 24 77.0087 28.8629 75.7893 34.2724L69.9363 60.0333C68.9487 64.3951 64.6809 67.6294 59.9011 67.6294H33.1242C27.2103 67.6294 22.9913 62.7665 24.2107 57.3684L30.0392 31.6075C31.0268 27.2343 35.2946 24 40.0745 24Z" stroke="#2F2D39" stroke-width="9"/>
<path d="M53.3654 42.3013H60.5718C66.4856 42.3013 70.7046 47.1642 69.4852 52.5738L67.8025 59.9763C66.8149 64.3381 62.5471 67.5725 57.7673 67.5725H50.5609C44.647 67.5725 40.4281 62.7096 41.6474 57.3114L43.3179 49.9089C44.3056 45.5357 48.5733 42.3013 53.3532 42.3013H53.3654Z" stroke="#2F2D39" stroke-width="9"/>
<path d="M43.3545 49.7836L36.9773 76" stroke="#2F2D39" stroke-width="9" stroke-linecap="round"/>
</g>
</svg>
